<svg id="e95050e2-e4dc-48e4-8dbf-b0167d07c262" data-name="Layer 1" xmlns="http://www.w3.org/2000/svg" width="970.67116" height="836.71444" viewBox="0 0 970.67116 836.71444"><title>editable</title><rect x="513.22594" y="85.04969" width="320" height="190" transform="translate(3.25159 -272.64171) rotate(22.19729)" fill="#3f3d56"/><circle cx="505.03028" cy="128.72427" r="72" fill="#4e73df"/><rect x="726.61771" y="137.48965" width="24" height="24" transform="translate(-3.44762 -299.61137) rotate(22.19729)" fill="#4e73df"/><rect x="754.39437" y="148.82356" width="24" height="24" transform="translate(2.89287 -309.26533) rotate(22.19729)" fill="#4e73df" opacity="0.5"/><rect x="782.17102" y="160.15747" width="24" height="24" transform="translate(9.23335 -318.91929) rotate(22.19729)" fill="#4e73df" opacity="0.2"/><rect x="715.28381" y="165.26631" width="24" height="24" transform="translate(6.20634 -293.27088) rotate(22.19729)" fill="#2f2e41"/><rect x="743.06046" y="176.60021" width="24" height="24" transform="translate(12.54683 -302.92484) rotate(22.19729)" fill="#2f2e41" opacity="0.5"/><rect x="770.83711" y="187.93412" width="24" height="24" transform="translate(18.88731 -312.57881) rotate(22.19729)" fill="#2f2e41" opacity="0.2"/><rect x="703.9499" y="193.04296" width="24" height="24" transform="translate(15.8603 -286.9304) rotate(22.19729)" fill="#ff6584"/><rect x="731.72655" y="204.37687" width="24" height="24" transform="translate(22.20079 -296.58436) rotate(22.19729)" fill="#ff6584" opacity="0.5"/><rect x="759.50321" y="215.71078" width="24" height="24" transform="translate(28.54127 -306.23832) rotate(22.19729)" fill="#ff6584" opacity="0.2"/><path d="M646.89608,93.70307,592.49333,227.031c36.81751,15.02291,80.69423-1.88954,95.71712-38.707S683.7136,108.726,646.89608,93.70307Z" transform="translate(-114.66442 -31.64278)" fill="#3f3d56" opacity="0.5"/><path d="M332.68293,240.72081,279.29487,327.9821a65.9906,65.9906,0,0,1-68.8545,112.54077l-56.76544,92.78149L701.30952,868.35722,880.31745,575.77366Z" transform="translate(-114.66442 -31.64278)" fill="#f2f2f2"/><path d="M1074.80889,643.42534c0,22.46856-13.35644,30.31375-29.83387,30.31375q-.57257,0-1.14332-.01273c-.76344-.01636-1.51961-.05271-2.26668-.10361-14.87058-1.05244-26.42387-9.30115-26.42387-30.19741,0-21.62514,27.63446-48.91242,29.71026-50.93189l.00364-.00363c.08-.07816.12-.11633.12-.11633S1074.80889,620.95678,1074.80889,643.42534Z" transform="translate(-114.66442 -31.64278)" fill="#4e73df"/><path d="M1043.888,670.30182l10.91162-15.24684-10.93889,16.92094-.02907,1.75044c-.76344-.01636-1.51961-.05271-2.26668-.10361l1.17606-22.47946-.00909-.1745.02-.03272.11088-2.12307-10.96619-16.96276,11.00071,15.37045.02547.45079.88884-16.98456-9.38839-17.52806,9.50291,14.547.9252-35.21244.00364-.12v.11633l-.1545,27.76715,9.34661-11.008-9.38478,13.40006-.2472,15.20685,8.72677-14.59429-8.76312,16.83189-.13814,8.4541L1056.91,628.23484l-12.71661,23.2629Z" transform="translate(-114.66442 -31.64278)" fill="#3f3d56"/><circle cx="80.14101" cy="480.14129" r="11.72934" fill="#ff6584"/><line x1="172.60662" y1="607.82201" x2="172.60662" y2="474.27242" fill="#3f3d56" stroke="#3f3d56" stroke-miterlimit="10" stroke-width="2"/><circle cx="172.60662" cy="474.27242" r="18.8858" fill="#3f3d56"/><path d="M250.07623,580.69056c-27.27962,41.83458-19.805,95.04278-19.805,95.04278s51.70364-14.61905,78.98326-56.45362,19.805-95.04278,19.805-95.04278S277.35585,538.856,250.07623,580.69056Z" transform="translate(-114.66442 -31.64278)" fill="#3f3d56"/><path d="M230.12611,675.24682s-.66409-.10594-1.88634-.35324c-.975-.19779-2.31724-.4804-3.95629-.869-14.65246-3.45471-53.608-15.13287-79.07671-45.83666-31.87654-38.44683-30.53425-92.16081-30.53425-92.16081s48.74035,7.9197,80.85707,42.44555q2.08768,2.2254,4.06228,4.61332c27.73655,33.452,30.32227,78.46212,30.52717,89.58924C230.14729,674.34255,230.12611,675.24682,230.12611,675.24682Z" transform="translate(-114.66442 -31.64278)" fill="#4e73df"/><path d="M210.46626,580.69056c27.27962,41.83458,19.805,95.04278,19.805,95.04278S178.5676,661.11429,151.288,619.27972s-19.805-95.04278-19.805-95.04278S183.18664,538.856,210.46626,580.69056Z" transform="translate(-114.66442 -31.64278)" fill="none" stroke="#3f3d56" stroke-miterlimit="10" stroke-width="2"/><path d="M230.119,672.67526c-.72062.869-1.35643,1.61076-1.87927,2.21832-1.1586,1.32112-1.81567,2.01351-1.81567,2.01351s-.79828-1.00324-2.14062-2.88247c-7.36862-10.27226-31.07114-46.79747-29.24137-88.9887q.14838-3.317.48748-6.56322,2.08768,2.2254,4.06228,4.61332C227.32842,616.53805,229.91414,661.54814,230.119,672.67526Z" transform="translate(-114.66442 -31.64278)" opacity="0.1"/><path d="M270.56761,588.087c-2.15625,49.89649-39.19548,88.8205-39.19548,88.8205s-33.54326-41.97419-31.387-91.87068,39.19548-88.8205,39.19548-88.8205S272.72386,538.19055,270.56761,588.087Z" transform="translate(-114.66442 -31.64278)" fill="#4e73df"/><line x1="116.70771" y1="643.85179" x2="124.85084" y2="466.60871" fill="none" stroke="#3f3d56" stroke-miterlimit="10" stroke-width="2"/><path d="M119.33558,671.31419v193h86.5c0-60.75134,34.47406-110,77-110s77,49.24866,77,110h59c0-60.75134,34.47406-110,77-110s77,49.24866,77,110h59c0-60.75134,34.47406-110,77-110s77,49.24866,77,110h59c0-60.75134,34.47406-110,77-110s77,49.24866,77,110h86.5v-193Z" transform="translate(-114.66442 -31.64278)" fill="#3f3d56"/><circle cx="136.67116" cy="351.67141" r="43" fill="#ff6584"/><circle cx="514.80685" cy="268.59863" r="29.38471" fill="#2f2e41"/><path d="M615.44412,315.0868S605.873,336.28,603.1384,336.96365,625.69889,349.953,625.69889,349.953s4.78556-25.97875,6.83651-27.346S615.44412,315.0868,615.44412,315.0868Z" transform="translate(-114.66442 -31.64278)" fill="#ffb9b9"/><path d="M615.44412,315.0868S605.873,336.28,603.1384,336.96365,625.69889,349.953,625.69889,349.953s4.78556-25.97875,6.83651-27.346S615.44412,315.0868,615.44412,315.0868Z" transform="translate(-114.66442 -31.64278)" opacity="0.1"/><polygon points="444.037 457.091 426.262 506.998 445.404 514.518 478.219 449.571 444.037 457.091" fill="#ffb9b9"/><path d="M620.91333,490.10154s35.54987,49.90655,37.60082,50.5902,16.40764-11.62207,16.40764-11.62207-17.77494-43.07-23.24415-45.121S620.91333,490.10154,620.91333,490.10154Z" transform="translate(-114.66442 -31.64278)" fill="#ffb9b9"/><path d="M538.19152,529.75332,510.16182,602.904s2.051,4.10191,0,4.78556-6.83652,11.62207-6.83652,12.30572-4.78556,1.36731-4.78556,3.41826-4.1019,18.45859-4.1019,18.45859,7.52016,16.40763,12.30572,11.62207,6.83651-14.35668,6.83651-14.35668l6.83652-17.77493s-.68365-9.57112,4.1019-10.93843,7.52017-18.45858,7.52017-18.45858,7.52016-7.52017,8.88747-9.57112,25.2951-38.28447,23.24414-38.96813S538.19152,529.75332,538.19152,529.75332Z" transform="translate(-114.66442 -31.64278)" fill="#2f2e41"/><path d="M654.41225,539.32444l20.50954-13.673s35.54986,64.94688,35.54986,66.31418-1.3673,5.46921,0,6.83651,12.98938,23.24415,20.50954,25.2951,8.88747,10.25477,2.73461,11.62207-14.35668,4.78556-16.40763,0a75.23735,75.23735,0,0,0-4.10191-8.20381s-6.83651,2.051-7.52016.68365a62.91151,62.91151,0,0,1-2.051-6.15286s-5.46921-9.57112-5.46921-12.98938a4.27716,4.27716,0,0,0-3.41826-4.10191S687.22751,587.18,682.442,584.44542s-8.88747-16.40763-8.88747-16.40763Z" transform="translate(-114.66442 -31.64278)" fill="#2f2e41"/><circle cx="515.13638" cy="279.34212" r="19.82589" fill="#ffb9b9"/><path d="M571.00678,431.30753s-19.14223,62.21227-15.04032,62.21227,99.12944,2.7346,102.54769-2.73461-21.19319-44.43733-22.56049-45.121S571.00678,431.30753,571.00678,431.30753Z" transform="translate(-114.66442 -31.64278)" fill="#2f2e41"/><path d="M541.60978,268.59851l-20.50954-31.448s5.07185-32.98922-1.76466-26.83636-9,31-9,31l23.754,36.17179Z" transform="translate(-114.66442 -31.64278)" fill="#ffb9b9"/><path d="M727.56294,326.02522l18.45858-1.3673s21.87685-23.24414,23.24415-15.724-17.77494,23.9278-17.77494,23.9278l-25.2951,2.7346Z" transform="translate(-114.66442 -31.64278)" fill="#ffb9b9"/><path d="M592.88363,332.86174v-6.83652s-17.77494-11.62207-17.09129-13.673-1.3673-3.41826-1.3673-3.41826-2.05095-2.7346-2.05095-3.41825-2.73461-1.36731-2.73461-1.36731L552.5482,284.32249s-9.57112-19.14223-11.62207-18.45858-12.98938,4.78556-11.62208,7.52016,39.65178,61.52862,39.65178,61.52862,2.051,12.98938,5.46921,12.98938S592.88363,332.86174,592.88363,332.86174Z" transform="translate(-114.66442 -31.64278)" fill="#3f3d56"/><path d="M638.68827,341.06555s15.04032-.68365,15.724,0,10.25477,0,10.25477,0,25.97875-6.15286,28.0297-8.20381,36.23352-10.93842,37.60082-6.83652,4.78556,12.30573,1.36731,13.673-95.71119,24.61145-95.71119,24.61145Z" transform="translate(-114.66442 -31.64278)" fill="#3f3d56"/><circle cx="504.52766" cy="237.67146" r="12.15919" fill="#2f2e41"/><path d="M602.97983,262.728a12.16044,12.16044,0,0,1,10.8926-12.09345,12.29555,12.29555,0,0,0-1.26658-.06574,12.15919,12.15919,0,0,0,0,24.31838,12.29274,12.29274,0,0,0,1.26658-.06574A12.16044,12.16044,0,0,1,602.97983,262.728Z" transform="translate(-114.66442 -31.64278)" fill="#2f2e41"/><ellipse cx="518.22511" cy="262.3683" rx="20.26532" ry="12.15919" fill="#2f2e41"/><path d="M609.63308,325.6834s-6.15286,4.78556-7.52016,5.46921-9.57112-6.15286-10.93842-6.15286-19.14224,20.50954-19.14224,20.50954,3.30332,3.8049,0,23.24414c-1.23884,7.29031-3.69668,38.45885-3.69668,42.56076s-13.3946,14.1823-1.08888,23.06977,71.09974,18.45858,71.78339,12.98937-6.83651-19.82588-3.41826-26.6624,3.41826-32.13161,3.41826-32.13161l4.10191-26.6624,3.41826-21.19319S630.48445,336.28,629.11715,336.28,621.597,345.85111,609.63308,325.6834Z" transform="translate(-114.66442 -31.64278)" fill="#3f3d56"/></svg>